<?xml version="1.0" encoding="UTF-8" standalone="no"?>
<!-- Created with Inkscape (http://www.inkscape.org/) -->

<svg
   width="31.999998"
   height="31.999998"
   viewBox="0 0 8.4666661 8.4666661"
   version="1.1"
   id="svg1"
   inkscape:export-filename="waves.svg"
   inkscape:export-xdpi="96"
   inkscape:export-ydpi="96"
   xmlns:inkscape="http://www.inkscape.org/namespaces/inkscape"
   xmlns:sodipodi="http://sodipodi.sourceforge.net/DTD/sodipodi-0.dtd"
   xmlns="http://www.w3.org/2000/svg"
   xmlns:svg="http://www.w3.org/2000/svg">
  <sodipodi:namedview
     id="namedview1"
     pagecolor="#ffffff"
     bordercolor="#000000"
     borderopacity="0.25"
     inkscape:showpageshadow="2"
     inkscape:pageopacity="0.0"
     inkscape:pagecheckerboard="0"
     inkscape:deskcolor="#d1d1d1"
     inkscape:document-units="mm" />
  <defs
     id="defs1" />
  <g
     inkscape:label="Layer 1"
     inkscape:groupmode="layer"
     id="layer1">
    <path
       style="fill:none;fill-opacity:1;stroke:#0008ff;stroke-width:0.529167;stroke-dasharray:none;stroke-opacity:1"
       d="m 1.2518602,5.5818237 c 0,0 1.0603992,1.3696823 2.0618875,1.3696823 1.0014881,0 0.9898565,-1.1530613 1.9971604,-1.1530613 1.007304,0 1.9793365,1.0941503 1.9793365,1.0941503"
       id="path19" />
    <path
       style="fill:none;fill-opacity:1;stroke:#0008ff;stroke-width:0.529167;stroke-linecap:butt;stroke-dasharray:none;stroke-opacity:1"
       d="m 1.3742555,4.3978866 c 0,0 1.0603992,1.3696823 2.0618875,1.3696823 1.0014881,0 0.9898565,-1.1530613 1.9971604,-1.1530613 1.007304,0 1.9793365,1.0941503 1.9793365,1.0941503"
       id="path19-4" />
    <path
       sodipodi:type="star"
       style="fill:none;fill-opacity:1;stroke:#ff8800;stroke-width:0.529167;stroke-dasharray:none;stroke-opacity:1"
       id="path45"
       inkscape:flatsided="false"
       sodipodi:sides="5"
       sodipodi:cx="3.1959257"
       sodipodi:cy="2.0618875"
       sodipodi:r1="0.98279572"
       sodipodi:r2="0.49139786"
       sodipodi:arg1="2.6243053"
       sodipodi:arg2="3.2526238"
       inkscape:rounded="0"
       inkscape:randomized="0"
       d="M 2.3417152,2.5479038 2.7075537,2.0074391 2.4697312,1.3996723 3.096794,1.5805926 3.6013233,1.1665997 3.623031,1.8188793 4.1726697,2.1707844 3.559023,2.3929951 3.3941891,3.0244773 2.9932269,2.5095314 Z"
       inkscape:transform-center-x="-0.061266727"
       inkscape:transform-center-y="0.033650958"
       transform="translate(0.02945553,0.61856623)" />
  </g>
</svg>
